<mxfile host="65bd71144e">
    <diagram name="Page-1" id="e7e014a7-5840-1c2e-5031-d8a46d1fe8dd">
        <mxGraphModel dx="1042" dy="604" grid="1" gridSize="10" guides="1" tooltips="1" connect="1" arrows="1" fold="1" page="1" pageScale="1" pageWidth="1169" pageHeight="826" background="none" math="0" shadow="0">
            <root>
                <mxCell id="0"/>
                <mxCell id="1" parent="0"/>
                <mxCell id="2" value="Frontend    " style="swimlane;whiteSpace=wrap;startSize=23;" parent="1" vertex="1">
                    <mxGeometry x="319" y="150" width="275.5" height="570" as="geometry"/>
                </mxCell>
                <mxCell id="3yE0dujbgpgNxI3G2Y4M-50" style="edgeStyle=orthogonalEdgeStyle;rounded=0;orthogonalLoop=1;jettySize=auto;html=1;exitX=0.5;exitY=1;exitDx=0;exitDy=0;entryX=0.5;entryY=0;entryDx=0;entryDy=0;" parent="2" source="5" target="3yE0dujbgpgNxI3G2Y4M-42" edge="1">
                    <mxGeometry relative="1" as="geometry"/>
                </mxCell>
                <mxCell id="5" value="" style="ellipse;shape=startState;fillColor=#000000;strokeColor=#000000;" parent="2" vertex="1">
                    <mxGeometry x="77.75" y="32" width="30" height="30" as="geometry"/>
                </mxCell>
                <mxCell id="3yE0dujbgpgNxI3G2Y4M-42" value="Відправка запиту на отримання даних про конкретного жителя" style="rounded=1;whiteSpace=wrap;html=1;" parent="2" vertex="1">
                    <mxGeometry x="15.5" y="90" width="154.5" height="92" as="geometry"/>
                </mxCell>
                <mxCell id="38" value="" style="ellipse;shape=endState;fillColor=#000000;strokeColor=#000000;" parent="2" vertex="1">
                    <mxGeometry x="122.75" y="420" width="30" height="30" as="geometry"/>
                </mxCell>
                <mxCell id="3yE0dujbgpgNxI3G2Y4M-48" value="Збереження відредагуваної інформації про жителя мікрорайону" style="rounded=1;whiteSpace=wrap;html=1;" parent="2" vertex="1">
                    <mxGeometry x="15.5" y="302" width="194.5" height="70" as="geometry"/>
                </mxCell>
                <mxCell id="4" value="Backend" style="swimlane;whiteSpace=wrap" parent="1" vertex="1">
                    <mxGeometry x="594.5" y="150" width="335.5" height="570" as="geometry"/>
                </mxCell>
                <mxCell id="3yE0dujbgpgNxI3G2Y4M-56" value="Збереження інформації про жителя мікрорайону в базі даних." style="rounded=1;whiteSpace=wrap;html=1;" parent="4" vertex="1">
                    <mxGeometry x="165.5" y="300" width="144.5" height="74" as="geometry"/>
                </mxCell>
                <mxCell id="3yE0dujbgpgNxI3G2Y4M-45" value="Отримання даніих певного жителя мікрорайону з бази даних" style="rounded=1;whiteSpace=wrap;html=1;" parent="4" vertex="1">
                    <mxGeometry x="165.5" y="62" width="144.5" height="74" as="geometry"/>
                </mxCell>
                <mxCell id="42" value="Інформація про жителя" style="rounded=0;whiteSpace=wrap;html=1;strokeColor=#000000;fontFamily=Helvetica;fontSize=12;fontColor=rgb(0, 0, 0);fillColor=#FFFFFF;gradientColor=none;" vertex="1" parent="4">
                    <mxGeometry x="15.5" y="190" width="90" height="40" as="geometry"/>
                </mxCell>
                <mxCell id="44" style="edgeStyle=orthogonalEdgeStyle;rounded=0;orthogonalLoop=1;jettySize=auto;html=1;entryX=1;entryY=0.5;entryDx=0;entryDy=0;exitX=0.344;exitY=1.015;exitDx=0;exitDy=0;exitPerimeter=0;" edge="1" parent="4" source="3yE0dujbgpgNxI3G2Y4M-45" target="42">
                    <mxGeometry relative="1" as="geometry">
                        <mxPoint x="225.5" y="150" as="sourcePoint"/>
                        <mxPoint x="135.5" y="260" as="targetPoint"/>
                        <Array as="points">
                            <mxPoint x="215.5" y="150"/>
                            <mxPoint x="215.5" y="150"/>
                            <mxPoint x="215.5" y="210"/>
                        </Array>
                    </mxGeometry>
                </mxCell>
                <mxCell id="40" value="Оновлена інформація про жителя" style="rounded=0;whiteSpace=wrap;html=1;strokeColor=#000000;fontFamily=Helvetica;fontSize=12;fontColor=rgb(0, 0, 0);fillColor=#FFFFFF;gradientColor=none;" vertex="1" parent="4">
                    <mxGeometry x="15.5" y="317" width="90" height="40" as="geometry"/>
                </mxCell>
                <mxCell id="3yE0dujbgpgNxI3G2Y4M-65" style="edgeStyle=orthogonalEdgeStyle;rounded=0;orthogonalLoop=1;jettySize=auto;html=1;entryX=0;entryY=0.5;entryDx=0;entryDy=0;fontFamily=Helvetica;fontSize=12;fontColor=rgb(0, 0, 0);startArrow=none;exitX=1;exitY=0.5;exitDx=0;exitDy=0;" parent="4" source="40" target="3yE0dujbgpgNxI3G2Y4M-56" edge="1">
                    <mxGeometry relative="1" as="geometry">
                        <mxPoint x="105.5" y="337" as="sourcePoint"/>
                    </mxGeometry>
                </mxCell>
                <mxCell id="3yE0dujbgpgNxI3G2Y4M-46" style="edgeStyle=orthogonalEdgeStyle;rounded=0;orthogonalLoop=1;jettySize=auto;html=1;entryX=0;entryY=0.5;entryDx=0;entryDy=0;exitX=1;exitY=0.5;exitDx=0;exitDy=0;" parent="1" source="3yE0dujbgpgNxI3G2Y4M-42" target="3yE0dujbgpgNxI3G2Y4M-45" edge="1">
                    <mxGeometry relative="1" as="geometry">
                        <mxPoint x="250" y="302" as="sourcePoint"/>
                    </mxGeometry>
                </mxCell>
                <mxCell id="3yE0dujbgpgNxI3G2Y4M-52" style="edgeStyle=orthogonalEdgeStyle;rounded=0;orthogonalLoop=1;jettySize=auto;html=1;exitX=0;exitY=0.5;exitDx=0;exitDy=0;entryX=0.446;entryY=-0.01;entryDx=0;entryDy=0;entryPerimeter=0;" parent="1" source="42" target="3yE0dujbgpgNxI3G2Y4M-48" edge="1">
                    <mxGeometry relative="1" as="geometry"/>
                </mxCell>
                <mxCell id="39" value="&lt;font style=&quot;font-size: 17px&quot;&gt;&lt;b&gt;Зміна інформації про жителів мікрорайону (Administrator)&lt;/b&gt;&lt;/font&gt;" style="text;html=1;align=center;verticalAlign=middle;resizable=0;points=[];autosize=1;strokeColor=none;fillColor=none;" vertex="1" parent="1">
                    <mxGeometry x="370" y="110" width="510" height="20" as="geometry"/>
                </mxCell>
                <mxCell id="46" style="edgeStyle=orthogonalEdgeStyle;rounded=0;orthogonalLoop=1;jettySize=auto;html=1;entryX=-0.017;entryY=0.555;entryDx=0;entryDy=0;fontFamily=Helvetica;fontSize=12;fontColor=rgb(0, 0, 0);startArrow=none;exitX=1.004;exitY=0.648;exitDx=0;exitDy=0;exitPerimeter=0;entryPerimeter=0;" edge="1" parent="1" source="3yE0dujbgpgNxI3G2Y4M-48" target="40">
                    <mxGeometry relative="1" as="geometry">
                        <mxPoint x="534.4999999999999" y="490" as="sourcePoint"/>
                        <mxPoint x="594.4999999999999" y="490" as="targetPoint"/>
                    </mxGeometry>
                </mxCell>
                <mxCell id="3yE0dujbgpgNxI3G2Y4M-78" style="edgeStyle=orthogonalEdgeStyle;rounded=0;orthogonalLoop=1;jettySize=auto;html=1;fontFamily=Helvetica;fontSize=12;fontColor=rgb(0, 0, 0);exitX=0.484;exitY=1.011;exitDx=0;exitDy=0;exitPerimeter=0;" parent="1" source="3yE0dujbgpgNxI3G2Y4M-56" target="38" edge="1">
                    <mxGeometry relative="1" as="geometry">
                        <mxPoint x="820" y="580" as="sourcePoint"/>
                        <Array as="points">
                            <mxPoint x="830" y="590"/>
                            <mxPoint x="464" y="590"/>
                        </Array>
                    </mxGeometry>
                </mxCell>
                <mxCell id="47" value="Frontend    " style="swimlane;whiteSpace=wrap;startSize=23;" vertex="1" parent="1">
                    <mxGeometry x="1030" y="148" width="275.5" height="570" as="geometry"/>
                </mxCell>
                <mxCell id="48" style="edgeStyle=orthogonalEdgeStyle;rounded=0;orthogonalLoop=1;jettySize=auto;html=1;exitX=0.5;exitY=1;exitDx=0;exitDy=0;entryX=0.5;entryY=0;entryDx=0;entryDy=0;" edge="1" parent="47" source="49" target="50">
                    <mxGeometry relative="1" as="geometry"/>
                </mxCell>
                <mxCell id="49" value="" style="ellipse;shape=startState;fillColor=#000000;strokeColor=#000000;" vertex="1" parent="47">
                    <mxGeometry x="77.75" y="32" width="30" height="30" as="geometry"/>
                </mxCell>
                <mxCell id="50" value="Відправка запиту на отримання даних про комунальні тарифи" style="rounded=1;whiteSpace=wrap;html=1;" vertex="1" parent="47">
                    <mxGeometry x="15.5" y="90" width="154.5" height="92" as="geometry"/>
                </mxCell>
                <mxCell id="51" value="" style="ellipse;shape=endState;fillColor=#000000;strokeColor=#000000;" vertex="1" parent="47">
                    <mxGeometry x="122.75" y="420" width="30" height="30" as="geometry"/>
                </mxCell>
                <mxCell id="52" value="Збереження відредагуваної інформації про комунальні тарифи" style="rounded=1;whiteSpace=wrap;html=1;" vertex="1" parent="47">
                    <mxGeometry x="15.5" y="297" width="194.5" height="60" as="geometry"/>
                </mxCell>
                <mxCell id="53" value="Backend" style="swimlane;whiteSpace=wrap" vertex="1" parent="1">
                    <mxGeometry x="1305.5" y="148" width="335.5" height="570" as="geometry"/>
                </mxCell>
                <mxCell id="54" value="Збереження згенерованих документів в базі даних." style="rounded=1;whiteSpace=wrap;html=1;" vertex="1" parent="53">
                    <mxGeometry x="165.5" y="300" width="144.5" height="74" as="geometry"/>
                </mxCell>
                <mxCell id="55" value="Отримання даніих про комунальні тарифи&amp;nbsp;з бази даних" style="rounded=1;whiteSpace=wrap;html=1;" vertex="1" parent="53">
                    <mxGeometry x="165.5" y="62" width="144.5" height="74" as="geometry"/>
                </mxCell>
                <mxCell id="56" value="Інформація про комунальні тарифи" style="rounded=0;whiteSpace=wrap;html=1;strokeColor=#000000;fontFamily=Helvetica;fontSize=12;fontColor=rgb(0, 0, 0);fillColor=#FFFFFF;gradientColor=none;" vertex="1" parent="53">
                    <mxGeometry x="15.5" y="190" width="94.5" height="50" as="geometry"/>
                </mxCell>
                <mxCell id="57" style="edgeStyle=orthogonalEdgeStyle;rounded=0;orthogonalLoop=1;jettySize=auto;html=1;entryX=1;entryY=0.5;entryDx=0;entryDy=0;exitX=0.344;exitY=1.015;exitDx=0;exitDy=0;exitPerimeter=0;" edge="1" parent="53" source="55" target="56">
                    <mxGeometry relative="1" as="geometry">
                        <mxPoint x="225.5" y="150" as="sourcePoint"/>
                        <mxPoint x="135.5" y="260" as="targetPoint"/>
                        <Array as="points">
                            <mxPoint x="215.5" y="150"/>
                            <mxPoint x="215.5" y="150"/>
                            <mxPoint x="215.5" y="210"/>
                        </Array>
                    </mxGeometry>
                </mxCell>
                <mxCell id="58" value="Оновлена інформація про комунальні тарифи" style="rounded=0;whiteSpace=wrap;html=1;strokeColor=#000000;fontFamily=Helvetica;fontSize=12;fontColor=rgb(0, 0, 0);fillColor=#FFFFFF;gradientColor=none;" vertex="1" parent="53">
                    <mxGeometry x="15.5" y="300" width="90" height="57" as="geometry"/>
                </mxCell>
                <mxCell id="59" style="edgeStyle=orthogonalEdgeStyle;rounded=0;orthogonalLoop=1;jettySize=auto;html=1;entryX=0;entryY=0.5;entryDx=0;entryDy=0;fontFamily=Helvetica;fontSize=12;fontColor=rgb(0, 0, 0);startArrow=none;exitX=1;exitY=0.5;exitDx=0;exitDy=0;" edge="1" parent="53" source="58" target="54">
                    <mxGeometry relative="1" as="geometry">
                        <mxPoint x="105.5" y="337" as="sourcePoint"/>
                    </mxGeometry>
                </mxCell>
                <mxCell id="60" style="edgeStyle=orthogonalEdgeStyle;rounded=0;orthogonalLoop=1;jettySize=auto;html=1;entryX=0;entryY=0.5;entryDx=0;entryDy=0;exitX=1;exitY=0.5;exitDx=0;exitDy=0;" edge="1" parent="1" source="50" target="55">
                    <mxGeometry relative="1" as="geometry">
                        <mxPoint x="961" y="300" as="sourcePoint"/>
                    </mxGeometry>
                </mxCell>
                <mxCell id="61" style="edgeStyle=orthogonalEdgeStyle;rounded=0;orthogonalLoop=1;jettySize=auto;html=1;exitX=0;exitY=0.5;exitDx=0;exitDy=0;entryX=0.446;entryY=-0.01;entryDx=0;entryDy=0;entryPerimeter=0;" edge="1" parent="1" source="56" target="52">
                    <mxGeometry relative="1" as="geometry"/>
                </mxCell>
                <mxCell id="62" value="&lt;font style=&quot;font-size: 17px&quot;&gt;&lt;b&gt;Зміна комунальних тарифів (Податкова)&lt;/b&gt;&lt;/font&gt;" style="text;html=1;align=center;verticalAlign=middle;resizable=0;points=[];autosize=1;strokeColor=none;fillColor=none;" vertex="1" parent="1">
                    <mxGeometry x="1156" y="108" width="360" height="20" as="geometry"/>
                </mxCell>
                <mxCell id="63" style="edgeStyle=orthogonalEdgeStyle;rounded=0;orthogonalLoop=1;jettySize=auto;html=1;entryX=-0.017;entryY=0.555;entryDx=0;entryDy=0;fontFamily=Helvetica;fontSize=12;fontColor=rgb(0, 0, 0);startArrow=none;exitX=1.004;exitY=0.648;exitDx=0;exitDy=0;exitPerimeter=0;entryPerimeter=0;" edge="1" parent="1" source="52" target="58">
                    <mxGeometry relative="1" as="geometry">
                        <mxPoint x="1245.5" y="488" as="sourcePoint"/>
                        <mxPoint x="1305.5" y="488" as="targetPoint"/>
                    </mxGeometry>
                </mxCell>
                <mxCell id="64" style="edgeStyle=orthogonalEdgeStyle;rounded=0;orthogonalLoop=1;jettySize=auto;html=1;fontFamily=Helvetica;fontSize=12;fontColor=rgb(0, 0, 0);exitX=0.484;exitY=1.011;exitDx=0;exitDy=0;exitPerimeter=0;" edge="1" parent="1" source="54" target="51">
                    <mxGeometry relative="1" as="geometry">
                        <mxPoint x="1531" y="578" as="sourcePoint"/>
                        <Array as="points">
                            <mxPoint x="1541" y="588"/>
                            <mxPoint x="1175" y="588"/>
                        </Array>
                    </mxGeometry>
                </mxCell>
            </root>
        </mxGraphModel>
    </diagram>
</mxfile>